<svg xmlns="http://www.w3.org/2000/svg" width="680" height="180" font-family="sans-serif">
<rect x="0" y="0" width="680" height="180" fill="#0d1117" rx="8"/>
<text fill="#ffffff" x="340" y="26" text-anchor="middle" font-size="16">Byte-level BPE pipeline: one stage, one job</text>
<rect x="-5" y="60" width="90" height="56" rx="6" fill="#161b22" stroke="#8b949e"/>
<text fill="#ffffff" x="40" y="84" text-anchor="middle" font-size="13">input</text>
<text fill="#8b949e" x="40" y="102" text-anchor="middle" font-size="11">bytes</text>
<line x1="85" y1="88" x2="105" y2="88" stroke="#8b949e"/>
<polygon points="105,82 105,94 112,88" fill="#8b949e"/>
<rect x="105" y="60" width="90" height="56" rx="6" fill="#161b22" stroke="#8b949e"/>
<text fill="#ffffff" x="150" y="84" text-anchor="middle" font-size="13">special</text>
<text fill="#8b949e" x="150" y="102" text-anchor="middle" font-size="11">split</text>
<line x1="195" y1="88" x2="215" y2="88" stroke="#8b949e"/>
<polygon points="215,82 215,94 222,88" fill="#8b949e"/>
<rect x="215" y="60" width="90" height="56" rx="6" fill="#161b22" stroke="#8b949e"/>
<text fill="#ffffff" x="260" y="84" text-anchor="middle" font-size="13">pretok</text>
<text fill="#8b949e" x="260" y="102" text-anchor="middle" font-size="11">regex</text>
<line x1="305" y1="88" x2="325" y2="88" stroke="#8b949e"/>
<polygon points="325,82 325,94 332,88" fill="#8b949e"/>
<rect x="325" y="60" width="90" height="56" rx="6" fill="#161b22" stroke="#8b949e"/>
<text fill="#ffffff" x="370" y="84" text-anchor="middle" font-size="13">bytemap</text>
<text fill="#8b949e" x="370" y="102" text-anchor="middle" font-size="11">map</text>
<line x1="415" y1="88" x2="435" y2="88" stroke="#8b949e"/>
<polygon points="435,82 435,94 442,88" fill="#8b949e"/>
<rect x="435" y="60" width="90" height="56" rx="6" fill="#161b22" stroke="#8b949e"/>
<text fill="#ffffff" x="480" y="84" text-anchor="middle" font-size="13">bpe</text>
<text fill="#8b949e" x="480" y="102" text-anchor="middle" font-size="11">merge</text>
<line x1="525" y1="88" x2="545" y2="88" stroke="#8b949e"/>
<polygon points="545,82 545,94 552,88" fill="#8b949e"/>
<rect x="545" y="60" width="90" height="56" rx="6" fill="#161b22" stroke="#8b949e"/>
<text fill="#ffffff" x="590" y="84" text-anchor="middle" font-size="13">vocab</text>
<text fill="#8b949e" x="590" y="102" text-anchor="middle" font-size="11">lookup</text>
<text fill="#ffffff" x="340" y="150" text-anchor="middle" font-size="12">ids out; a mismatch names its stage, never "the tokenizer"</text>
</svg>